<?xml version="1.0" encoding="UTF-8"?>
<svg xmlns="http://www.w3.org/2000/svg" xmlns:xlink="http://www.w3.org/1999/xlink" width="16pt" height="18pt" viewBox="0 0 16 18" version="1.1">
<g id="surface1">
<path style=" stroke:none;fill-rule:nonzero;fill:rgb(0%,0%,0%);fill-opacity:1;" d="M 14.207031 1.125 L 1.792969 1.125 C 0.8125 1.125 0 1.921875 0 2.890625 L 0 15.109375 C 0 16.078125 0.8125 16.875 1.792969 16.875 L 14.207031 16.875 C 15.1875 16.875 16 16.078125 16 15.109375 L 16 2.890625 C 16 1.921875 15.1875 1.125 14.207031 1.125 Z M 12.585938 11.121094 C 12.585938 11.265625 12.457031 11.332031 12.308594 11.394531 C 11.710938 11.648438 11.070312 11.875 10.386719 11.875 C 9.425781 11.875 8.980469 11.289062 7.824219 11.289062 C 6.992188 11.289062 6.117188 11.585938 5.414062 11.898438 C 5.371094 11.917969 5.328125 11.917969 5.285156 11.9375 L 5.285156 13.535156 C 5.285156 13.597656 5.285156 13.660156 5.265625 13.703125 L 5.265625 13.746094 C 5.179688 14.042969 4.898438 14.25 4.582031 14.25 C 4.179688 14.25 3.855469 13.933594 3.855469 13.535156 L 3.855469 5.851562 C 3.578125 5.640625 3.390625 5.304688 3.390625 4.925781 C 3.390625 4.273438 3.921875 3.746094 4.585938 3.746094 C 5.246094 3.746094 5.78125 4.273438 5.78125 4.925781 C 5.78125 5.304688 5.609375 5.640625 5.3125 5.851562 L 5.3125 6.5 C 5.378906 6.480469 5.441406 6.457031 5.507812 6.414062 C 6.167969 6.140625 6.957031 5.914062 7.703125 5.914062 C 8.515625 5.914062 9.152344 6.125 9.878906 6.394531 C 10.027344 6.457031 10.179688 6.480469 10.347656 6.480469 C 11.15625 6.480469 12.054688 5.914062 12.269531 5.914062 C 12.4375 5.914062 12.589844 6.039062 12.589844 6.1875 L 12.589844 11.121094 Z M 12.585938 11.121094 "/>
</g>
</svg>
