<svg version="1.1" viewBox="0.0 0.0 960.0 540.0" fill="none" stroke="none" stroke-linecap="square" stroke-miterlimit="10" xmlns:xlink="http://www.w3.org/1999/xlink" xmlns="http://www.w3.org/2000/svg"><clipPath id="p.0"><path d="m0 0l960.0 0l0 540.0l-960.0 0l0 -540.0z" clip-rule="nonzero"/></clipPath><g clip-path="url(#p.0)"><path fill="#212121" d="m0 0l960.0 0l0 540.0l-960.0 0z" fill-rule="evenodd"/><g filter="url(#shadowFilter-p.1)"><use xlink:href="#p.1" transform="matrix(1.0 0.0 0.0 1.0 0.0 2.0)"/></g><defs><filter id="shadowFilter-p.1" filterUnits="userSpaceOnUse"><feGaussianBlur in="SourceAlpha" stdDeviation="2.0" result="blur"/><feComponentTransfer in="blur" color-interpolation-filters="sRGB"><feFuncR type="linear" slope="0" intercept="0.0"/><feFuncG type="linear" slope="0" intercept="0.0"/><feFuncB type="linear" slope="0" intercept="0.0"/><feFuncA type="linear" slope="0.5" intercept="0"/></feComponentTransfer></filter></defs><g id="p.1"><path fill="#ffffff" d="m472.67715 336.42258l14.330719 0l0 92.59842l-14.330719 0z" fill-rule="evenodd"/></g><g filter="url(#shadowFilter-p.2)"><use xlink:href="#p.2" transform="matrix(1.0 0.0 0.0 1.0 0.0 2.0)"/></g><defs><filter id="shadowFilter-p.2" filterUnits="userSpaceOnUse"><feGaussianBlur in="SourceAlpha" stdDeviation="2.0" result="blur"/><feComponentTransfer in="blur" color-interpolation-filters="sRGB"><feFuncR type="linear" slope="0" intercept="0.0"/><feFuncG type="linear" slope="0" intercept="0.0"/><feFuncB type="linear" slope="0" intercept="0.0"/><feFuncA type="linear" slope="0.5" intercept="0"/></feComponentTransfer></filter></defs><g id="p.2"><path fill="#ffffff" d="m524.81586 336.42258l-89.794464 0c-5.162445 0 -10.113434 -2.0507812 -13.763794 -5.701172c-3.6503906 -3.65036 -5.701172 -8.601349 -5.701172 -13.763794l0 -97.32243c0 -5.950928E-4 4.8828125E-4 -0.001083374 0.0010681152 -0.001083374l128.72333 0.001083374l0 0c6.1035156E-4 0 0.0010986328 4.7302246E-4 0.0010986328 0.0010681152l-0.0010986328 97.321365l0 0c0 10.750214 -8.714722 19.464966 -19.464966 19.464966z" fill-rule="evenodd"/></g><g filter="url(#shadowFilter-p.3)"><use xlink:href="#p.3" transform="matrix(1.0 0.0 0.0 1.0 0.0 2.0)"/></g><defs><filter id="shadowFilter-p.3" filterUnits="userSpaceOnUse"><feGaussianBlur in="SourceAlpha" stdDeviation="2.0" result="blur"/><feComponentTransfer in="blur" color-interpolation-filters="sRGB"><feFuncR type="linear" slope="0" intercept="0.0"/><feFuncG type="linear" slope="0" intercept="0.0"/><feFuncB type="linear" slope="0" intercept="0.0"/><feFuncA type="linear" slope="0.5" intercept="0"/></feComponentTransfer></filter></defs><g id="p.3"><path fill="#ffffff" d="m440.2651 442.34384l0 -13.322845l78.4252 0l0 13.322845z" fill-rule="evenodd"/></g><path fill="#ffffff" d="m251.37007 285.50836l0 0c0 -127.58212 102.3611 -231.00787 228.62993 -231.00787l0 0c60.636414 0 118.78931 24.33826 161.66577 67.660645c42.876404 43.32238 66.96411 102.08013 66.96411 163.34723l0 0c0 127.58212 -102.361084 231.00787 -228.62988 231.00787l0 0c-126.26883 0 -228.62993 -103.42575 -228.62993 -231.00787zm24.888657 0l0 0c0 113.83649 91.21808 206.11923 203.74127 206.11923c112.52319 0 203.74127 -92.282745 203.74127 -206.11923l0 0c0 -113.8365 -91.21808 -206.11923 -203.74127 -206.11923l0 0c-112.52319 0 -203.74127 92.28272 -203.74127 206.11923z" fill-rule="evenodd"/><path stroke="#303030" stroke-width="1.0" stroke-linejoin="round" stroke-linecap="butt" d="m251.37007 285.50836l0 0c0 -127.58212 102.3611 -231.00787 228.62993 -231.00787l0 0c60.636414 0 118.78931 24.33826 161.66577 67.660645c42.876404 43.32238 66.96411 102.08013 66.96411 163.34723l0 0c0 127.58212 -102.361084 231.00787 -228.62988 231.00787l0 0c-126.26883 0 -228.62993 -103.42575 -228.62993 -231.00787zm24.888657 0l0 0c0 113.83649 91.21808 206.11923 203.74127 206.11923c112.52319 0 203.74127 -92.282745 203.74127 -206.11923l0 0c0 -113.8365 -91.21808 -206.11923 -203.74127 -206.11923l0 0c-112.52319 0 -203.74127 92.28272 -203.74127 206.11923z" fill-rule="evenodd"/><path fill="#303030" d="m517.1598 323.6378l-75.84189 0c-4.0932007 0 -8.018738 -1.6260071 -10.913055 -4.5203247c-2.8943176 -2.8943176 -4.5203247 -6.8198547 -4.5203247 -10.913055l0 -77.16504c0 -4.8828125E-4 3.9672852E-4 -8.8500977E-4 8.8500977E-4 -8.8500977E-4l106.707794 8.8500977E-4l0 0c4.8828125E-4 0 8.544922E-4 3.9672852E-4 8.544922E-4 8.8500977E-4l-8.544922E-4 77.164154l0 0c0 8.523621 -6.90979 15.43338 -15.433411 15.43338z" fill-rule="evenodd"/><path fill="#ffffff" d="m452.38873 122.44095l55.222534 0l0 0c3.6615906 0 7.173218 1.4545593 9.762329 4.0436935c2.5891724 2.5891342 4.043701 6.1007614 4.043701 9.762352l0 78.79237c0 3.8146973E-4 -3.0517578E-4 6.866455E-4 -6.713867E-4 6.866455E-4l-82.833954 -6.866455E-4l0 0c-3.6621094E-4 0 -6.713867E-4 -3.0517578E-4 -6.713867E-4 -6.866455E-4l6.713867E-4 -78.79169l0 0c0 -7.6248627 6.181183 -13.806046 13.806061 -13.806046z" fill-rule="evenodd"/><path fill="#ffffff" d="m507.55353 304.81628l-55.159546 0l0 0c-3.6574097 0 -7.165039 -1.4529114 -9.751221 -4.039093c-2.5861816 -2.5861816 -4.039093 -6.093811 -4.039093 -9.751221l0 -75.97348c0 -3.8146973E-4 3.0517578E-4 -6.866455E-4 7.019043E-4 -6.866455E-4l82.73944 6.866455E-4l0 0c4.272461E-4 0 7.324219E-4 3.0517578E-4 7.324219E-4 6.866455E-4l-7.324219E-4 75.97279l0 0c0 7.6161804 -6.1741333 13.790314 -13.790283 13.790314z" fill-rule="evenodd"/><path fill="#212121" d="m480.0 153.16055l0 11.968506l41.228333 0l0 -11.968506z" fill-rule="evenodd"/><path fill="#212121" d="m480.0 178.9527l0 11.968506l41.228333 0l0 -11.968506z" fill-rule="evenodd"/><path fill="#212121" d="m480.0 203.73228l0 11.307083l41.228333 0l0 -11.307083z" fill-rule="evenodd"/></g></svg>