<svg version="1.1" viewBox="0.0 0.0 960.0 540.0" fill="none" stroke="none" stroke-linecap="square" stroke-miterlimit="10" xmlns:xlink="http://www.w3.org/1999/xlink" xmlns="http://www.w3.org/2000/svg"><clipPath id="p.0"><path d="m0 0l960.0 0l0 540.0l-960.0 0l0 -540.0z" clip-rule="nonzero"/></clipPath><g clip-path="url(#p.0)"><path fill="#212121" d="m0 0l960.0 0l0 540.0l-960.0 0z" fill-rule="evenodd"/><path fill="#ffffff" d="m248.56168 264.8714l0 0c0 -138.46259 108.76309 -250.70866 242.92914 -250.70866l0 0c64.4288 0 126.21878 26.413874 171.77682 73.43087c45.558044 47.017 71.15228 110.78572 71.15228 177.2778l0 0c0 138.46255 -108.76306 250.70868 -242.92911 250.70868l0 0c-134.16605 0 -242.92914 -112.246124 -242.92914 -250.70868zm14.881836 0l0 0c0 130.24356 102.10025 235.82681 228.0473 235.82681c125.94705 0 228.04727 -105.58325 228.04727 -235.82681l0 0c0 -130.24356 -102.10022 -235.82683 -228.04727 -235.82683l0 0c-125.94705 0 -228.0473 105.58327 -228.0473 235.82683z" fill-rule="evenodd"/><path stroke="#4dd0e1" stroke-width="1.0" stroke-linejoin="round" stroke-linecap="butt" d="m248.56168 264.8714l0 0c0 -138.46259 108.76309 -250.70866 242.92914 -250.70866l0 0c64.4288 0 126.21878 26.413874 171.77682 73.43087c45.558044 47.017 71.15228 110.78572 71.15228 177.2778l0 0c0 138.46255 -108.76306 250.70868 -242.92911 250.70868l0 0c-134.16605 0 -242.92914 -112.246124 -242.92914 -250.70868zm14.881836 0l0 0c0 130.24356 102.10025 235.82681 228.0473 235.82681c125.94705 0 228.04727 -105.58325 228.04727 -235.82681l0 0c0 -130.24356 -102.10022 -235.82683 -228.04727 -235.82683l0 0c-125.94705 0 -228.0473 105.58327 -228.0473 235.82683z" fill-rule="evenodd"/><path fill="#000000" fill-opacity="0.0" d="m618.14545 109.67716l-1.1654053 -95.59055" fill-rule="evenodd"/><path stroke="#303030" stroke-width="4.0" stroke-linejoin="round" stroke-linecap="butt" d="m618.14545 109.67716l-1.1654053 -95.59055" fill-rule="evenodd"/><path fill="#000000" fill-opacity="0.0" d="m618.14545 109.67716l-85.13391 34.677162" fill-rule="evenodd"/><path stroke="#303030" stroke-width="4.0" stroke-linejoin="round" stroke-linecap="butt" d="m618.14545 109.67716l-85.13391 34.677162" fill-rule="evenodd"/><path fill="#ffffff" d="m707.6996 340.50015l0 0c-1.8826294 91.324066 -98.33551 164.55368 -216.54913 164.40991c-118.21359 -0.14376831 -214.36765 -73.607605 -215.8782 -164.93579l216.21857 -2.1348572z" fill-rule="evenodd"/><path fill="#ffffff" d="m418.78595 341.0489l0 0c-1.2231445 -25.288116 25.195038 -48.8938 68.88849 -61.554596c43.69342 -12.660767 97.69171 -12.356903 140.807 0.7923889c43.115234 13.149292 68.46924 37.046295 66.11359 62.3143l-137.84961 -3.2282715z" fill-rule="evenodd"/><path fill="#ffffff" d="m731.00696 174.71803c-6.421753 -29.36113 -24.275513 -52.18724 -48.98456 -62.626953c-24.708984 -10.439705 -53.87085 -7.4779663 -80.00995 8.125999z" fill-rule="evenodd"/><path fill="#ffffff" d="m736.5927 43.22401l0 0c-27.789368 -12.14002 -56.924927 -11.020981 -79.88452 3.068203c-22.959534 14.089184 -37.492676 39.76754 -39.847168 70.405464z" fill-rule="evenodd"/><path fill="#ffffff" d="m637.65814 -26.290302l0 0c-26.295898 14.555046 -43.060425 38.194473 -45.99652 64.85913c-2.9361572 26.664658 8.241577 53.762276 30.668152 74.34731z" fill-rule="evenodd"/><path fill="#ffffff" d="m623.16766 124.937035c-6.122925 -29.427574 -23.745361 -52.437073 -48.35016 -63.130524c-24.604858 -10.693455 -53.799927 -8.031223 -80.101776 7.304291z" fill-rule="evenodd"/><path fill="#ffffff" d="m622.05695 120.53541c-25.001648 -18.064331 -54.05658 -23.11158 -79.55835 -13.820427c-25.501831 9.291161 -44.911285 31.995605 -53.147186 62.16948z" fill-rule="evenodd"/><path fill="#212121" d="m694.1286 159.07895l-1.5988159 -11.9735565l-9.519287 8.8554535z" fill-rule="evenodd"/><path fill="#212121" d="m712.52625 58.349068l-9.543152 -5.21933l-0.25213623 10.888618z" fill-rule="evenodd"/><path fill="#212121" d="m633.2992 13.506561l-11.399719 9.060728l11.4627075 8.07313z" fill-rule="evenodd"/><path fill="#212121" d="m530.3989 84.60321l4.440979 -13.952759l-15.937012 10.330711z" fill-rule="evenodd"/><path fill="#212121" d="m519.97107 159.07806l1.8569336 -16.269852l11.182434 12.427322z" fill-rule="evenodd"/><path fill="#ffffff" d="m554.3636 309.92386l22.265503 -69.25986l51.311523 6.0787964l5.383606 72.5354z" fill-rule="evenodd"/><path fill="#ffffff" d="m578.4206 235.97638l21.503906 -74.79527l25.181091 2.9133759l3.677185 77.708664z" fill-rule="evenodd"/><path fill="#ffffff" d="m600.0194 157.80315l11.960632 -48.83465l12.3307495 1.4173203l0.37005615 50.25197z" fill-rule="evenodd"/><path fill="#ffffff" d="m495.1496 298.72986l-4.955353 -55.571503l31.894989 -9.20343l25.343811 49.688324z" fill-rule="evenodd"/><path fill="#ffffff" d="m487.86615 237.36658l-12.824402 -56.78322l25.648804 -7.378433l19.364563 54.90181z" fill-rule="evenodd"/><path fill="#ffffff" d="m474.71652 174.38199l-11.45697 -56.24492l13.62262 -3.9196243l20.16507 53.73934z" fill-rule="evenodd"/><path fill="#ffffff" d="m473.53085 121.29779l0 0c-19.9234 -12.454933 -41.70105 -14.458595 -59.26651 -5.4528427c-17.56546 9.005745 -29.041748 28.058586 -31.231995 51.851097z" fill-rule="evenodd"/><path fill="#ffffff" d="m569.6109 139.58983c-10.724121 -24.227577 -29.763428 -39.824417 -51.7912 -42.426857c-22.027802 -2.6024399 -44.678497 8.068993 -61.6149 29.028656z" fill-rule="evenodd"/><path fill="#ffffff" d="m523.01483 24.972275c-25.600677 1.3225727 -46.417725 13.160286 -56.699036 32.242195c-10.281311 19.08191 -8.938385 43.387733 3.6577454 66.2014z" fill-rule="evenodd"/><path fill="#ffffff" d="m472.24 125.53769c-1.2911377 -25.914513 -13.22113 -46.900368 -32.46347 -57.105934c-19.24234 -10.20557 -43.738586 -8.539101 -66.658264 4.5347366z" fill-rule="evenodd"/><path fill="#ffffff" d="m472.38898 121.05798c-21.949738 3.6192703 -39.312927 16.683502 -47.04367 35.396027c-7.730713 18.71254 -4.961792 40.974472 7.5020447 60.316208z" fill-rule="evenodd"/><path fill="#212121" d="m438.52026 202.98674l-6.744629 -10.482376l11.437561 0.1831665z" fill-rule="evenodd"/><path fill="#212121" d="m407.78763 155.20116l-10.3446045 -6.429001l-1.8443909 12.602234z" fill-rule="evenodd"/><path fill="#212121" d="m390.91034 83.21283l10.732208 -8.76313l-2.7322083 14.400925z" fill-rule="evenodd"/><path fill="#212121" d="m507.49356 54.15045l-6.0776367 -12.110794l13.5737 -1.7474747z" fill-rule="evenodd"/></g></svg>