<svg id="svg" version="1.1" xmlns="http://www.w3.org/2000/svg" xmlns:xlink="http://www.w3.org/1999/xlink" width="400" height="640" viewBox="0, 0, 400,640"><g id="svgg"><path id="path0" d="M259.630 203.145 C 253.587 209.261,249.167 217.473,247.583 225.525 C 246.818 229.414,246.376 229.607,241.686 228.101 C 239.549 227.414,237.419 226.746,236.953 226.616 C 236.487 226.486,235.253 225.574,234.211 224.590 C 233.169 223.605,232.057 222.800,231.740 222.800 C 230.387 222.800,229.275 221.008,229.481 219.160 C 229.651 217.646,229.491 217.125,228.339 215.434 C 225.604 211.417,223.972 212.228,222.777 218.198 C 221.654 223.805,222.138 223.563,213.181 223.000 C 173.845 220.528,132.644 245.207,113.451 282.735 C 75.494 356.957,130.016 446.333,212.000 444.281 C 291.627 442.288,341.452 356.949,305.784 283.650 L 302.791 277.499 304.336 275.050 C 306.265 271.993,307.308 271.706,309.094 273.740 C 310.834 275.722,311.571 276.000,315.085 276.000 C 320.827 276.000,321.381 274.240,317.503 268.325 C 310.632 257.844,302.229 253.087,290.911 253.270 C 283.333 253.392,283.371 253.190,292.120 246.858 C 299.598 241.445,299.748 241.293,299.505 239.318 C 299.402 238.483,299.474 237.376,299.665 236.859 C 300.034 235.858,300.042 235.858,304.493 236.628 C 305.847 236.862,306.258 236.688,308.893 234.772 C 316.251 229.420,316.049 228.322,307.405 226.652 C 291.741 223.624,279.875 226.348,270.806 235.053 C 264.446 241.157,263.620 240.357,264.387 228.833 C 265.418 213.355,265.429 214.587,264.248 213.184 C 262.923 211.609,262.878 209.911,264.136 208.921 C 265.588 207.780,266.000 206.667,266.000 203.888 C 266.000 198.923,264.028 198.693,259.630 203.145 M219.127 232.813 C 222.323 233.236,222.477 233.377,223.792 237.108 C 224.392 238.809,225.853 242.082,227.039 244.383 C 229.739 249.620,229.921 249.433,222.280 249.272 C 212.321 249.062,204.896 251.368,197.413 256.997 C 192.304 260.839,192.827 262.219,199.851 263.439 C 206.946 264.670,206.901 264.672,208.528 263.045 C 210.940 260.633,213.028 260.999,214.342 264.064 C 214.777 265.080,215.311 266.021,215.527 266.155 C 215.916 266.396,226.176 268.396,231.200 269.211 C 232.630 269.443,234.970 269.895,236.400 270.215 C 237.830 270.535,241.250 271.251,244.000 271.806 C 250.552 273.127,250.290 273.017,251.223 274.845 C 252.244 276.846,252.786 277.034,258.349 277.318 C 262.292 277.519,263.166 277.444,264.907 276.758 C 266.773 276.022,267.741 275.975,278.626 276.083 C 292.408 276.221,290.915 275.643,294.731 282.312 C 307.208 304.115,311.338 331.068,305.983 355.751 C 304.741 361.480,304.091 361.688,301.137 357.300 C 296.134 349.871,288.710 344.396,277.718 340.028 C 273.358 338.296,272.808 337.300,269.201 324.608 C 266.635 315.577,267.047 316.006,262.313 317.433 C 259.835 318.180,257.655 318.494,253.665 318.679 C 246.394 319.016,246.658 318.472,248.187 330.000 C 248.995 336.093,249.525 335.692,236.800 338.610 C 215.113 343.584,203.303 353.020,200.566 367.562 C 199.690 372.218,200.352 371.997,187.256 372.018 C 181.175 372.028,163.960 372.222,149.000 372.450 C 134.040 372.677,121.171 372.845,120.402 372.824 C 118.313 372.766,117.450 371.563,115.651 366.200 C 100.335 320.550,119.612 269.103,160.984 245.209 C 178.317 235.199,200.842 230.397,219.127 232.813 M246.775 240.300 C 247.737 241.079,248.475 243.631,247.973 244.443 C 247.297 245.537,244.416 241.577,244.925 240.252 C 245.245 239.417,245.700 239.429,246.775 240.300 M250.887 280.224 C 249.876 280.933,249.489 282.261,248.590 288.115 C 247.637 294.323,247.900 294.642,253.800 294.441 C 258.097 294.294,260.199 293.687,262.031 292.061 L 263.713 290.569 264.053 286.212 C 264.526 280.147,264.826 280.367,255.375 279.827 C 252.533 279.664,251.564 279.750,250.887 280.224 M259.800 296.443 C 259.140 296.659,256.449 296.946,253.819 297.081 C 246.933 297.433,247.200 297.042,247.200 306.759 C 247.200 316.087,246.860 315.602,253.389 315.595 C 259.771 315.588,264.583 314.097,265.370 311.883 C 265.733 310.861,264.727 299.458,264.074 297.200 C 263.746 296.063,261.938 295.743,259.800 296.443 " stroke="none" fill="#040404" fill-rule="evenodd"></path><path id="path1" d="M0.000 320.000 L 0.000 640.000 200.000 640.000 L 400.000 640.000 400.000 320.000 L 400.000 0.000 200.000 0.000 L 0.000 0.000 0.000 320.000 M265.269 200.662 C 266.859 202.101,266.140 207.346,264.136 208.921 C 262.878 209.911,262.923 211.609,264.248 213.184 C 265.429 214.587,265.418 213.355,264.387 228.833 C 263.620 240.357,264.446 241.157,270.806 235.053 C 279.875 226.348,291.741 223.624,307.405 226.652 C 316.049 228.322,316.251 229.420,308.893 234.772 C 306.258 236.688,305.847 236.862,304.493 236.628 C 300.042 235.858,300.034 235.858,299.665 236.859 C 299.474 237.376,299.402 238.483,299.505 239.318 C 299.748 241.293,299.598 241.445,292.120 246.858 C 283.371 253.190,283.333 253.392,290.911 253.270 C 302.229 253.087,310.632 257.844,317.503 268.325 C 321.381 274.240,320.827 276.000,315.085 276.000 C 311.571 276.000,310.834 275.722,309.094 273.740 C 307.308 271.706,306.265 271.993,304.336 275.050 L 302.791 277.499 305.784 283.650 C 330.859 335.179,314.761 395.636,267.600 427.057 C 219.082 459.382,152.232 445.214,119.859 395.745 C 80.371 335.403,106.723 253.638,173.478 229.375 C 185.664 224.945,202.111 222.304,213.181 223.000 C 222.138 223.563,221.654 223.805,222.777 218.198 C 223.972 212.228,225.604 211.417,228.339 215.434 C 229.491 217.125,229.651 217.646,229.481 219.160 C 229.275 221.008,230.387 222.800,231.740 222.800 C 232.057 222.800,233.169 223.605,234.211 224.590 C 235.253 225.574,236.487 226.486,236.953 226.616 C 237.419 226.746,239.549 227.414,241.686 228.101 C 246.376 229.607,246.818 229.414,247.583 225.525 C 249.946 213.515,261.509 197.259,265.269 200.662 M205.000 232.270 C 152.416 234.683,110.437 279.740,110.403 333.802 C 110.396 346.553,114.856 368.535,118.132 371.893 C 119.209 372.996,116.402 372.945,149.000 372.450 C 163.960 372.222,181.175 372.028,187.256 372.018 C 200.352 371.997,199.690 372.218,200.566 367.562 C 203.303 353.020,215.113 343.584,236.800 338.610 C 249.525 335.692,248.995 336.093,248.187 330.000 C 246.658 318.472,246.394 319.016,253.665 318.679 C 257.655 318.494,259.835 318.180,262.313 317.433 C 267.047 316.006,266.635 315.577,269.201 324.608 C 272.808 337.300,273.358 338.296,277.718 340.028 C 288.710 344.396,296.134 349.871,301.137 357.300 C 304.091 361.688,304.741 361.480,305.983 355.751 C 311.338 331.068,307.208 304.115,294.731 282.312 C 290.915 275.643,292.408 276.221,278.626 276.083 C 267.741 275.975,266.773 276.022,264.907 276.758 C 263.166 277.444,262.292 277.519,258.349 277.318 C 252.786 277.034,252.244 276.846,251.223 274.845 C 250.290 273.017,250.552 273.127,244.000 271.806 C 241.250 271.251,237.830 270.535,236.400 270.215 C 234.970 269.895,232.630 269.443,231.200 269.211 C 226.176 268.396,215.916 266.396,215.527 266.155 C 215.311 266.021,214.777 265.080,214.342 264.064 C 213.028 260.999,210.940 260.633,208.528 263.045 C 206.901 264.672,206.946 264.670,199.851 263.439 C 192.827 262.219,192.304 260.839,197.413 256.997 C 204.896 251.368,212.321 249.062,222.280 249.272 C 229.921 249.433,229.739 249.620,227.039 244.383 C 225.853 242.082,224.392 238.809,223.792 237.108 C 223.193 235.408,222.467 233.821,222.178 233.582 C 221.151 232.729,211.335 231.980,205.000 232.270 M244.925 240.252 C 244.416 241.577,247.297 245.537,247.973 244.443 C 248.475 243.631,247.737 241.079,246.775 240.300 C 245.700 239.429,245.245 239.417,244.925 240.252 M261.059 280.241 C 264.239 280.560,264.460 281.000,264.053 286.212 L 263.713 290.569 262.031 292.061 C 260.199 293.687,258.097 294.294,253.800 294.441 C 247.900 294.642,247.637 294.323,248.590 288.115 C 250.001 278.924,249.719 279.102,261.059 280.241 M264.074 297.200 C 264.727 299.458,265.733 310.861,265.370 311.883 C 264.583 314.097,259.771 315.588,253.389 315.595 C 246.860 315.602,247.200 316.087,247.200 306.759 C 247.200 297.042,246.933 297.433,253.819 297.081 C 256.449 296.946,259.140 296.659,259.800 296.443 C 261.938 295.743,263.746 296.063,264.074 297.200 " stroke="none" fill="#fbfbfb" fill-rule="evenodd"></path></g></svg>